<svg width="32" height="28" viewBox="0 0 32 28" xmlns="http://www.w3.org/2000/svg">
  <!-- Bone Crawler: skittering knot of fused bone. Original art. -->
  <!-- legs -->
  <path d="M8 14 L2 8 M8 16 L2 20 M24 14 L30 8 M24 16 L30 20 M12 18 L7 26 M20 18 L25 26" stroke="#cfc8b4" stroke-width="2" stroke-linecap="round"/>
  <!-- body: fused skull cluster -->
  <ellipse cx="16" cy="14" rx="9" ry="7.5" fill="#ddd5c2" stroke="#8d8470" stroke-width="1.4"/>
  <ellipse cx="11.5" cy="10" rx="3.6" ry="3.2" fill="#e8e0cf"/>
  <ellipse cx="21" cy="10.5" rx="3.2" ry="2.8" fill="#e8e0cf"/>
  <!-- eye pits glowing green -->
  <circle cx="13" cy="14" r="1.9" fill="#1c2415"/>
  <circle cx="19.6" cy="14" r="1.9" fill="#1c2415"/>
  <circle cx="13" cy="14" r="0.9" fill="#8aff64"/>
  <circle cx="19.6" cy="14" r="0.9" fill="#8aff64"/>
  <!-- cracked jaw -->
  <path d="M11 19 L13 21 L15 19 L17 21 L19 19 L21 21" fill="none" stroke="#8d8470" stroke-width="1.3"/>
</svg>
