<svg width="50" height="48" viewBox="0 0 50 48" xmlns="http://www.w3.org/2000/svg">
  <!-- Plague Brute: swollen mass of rot. Original art. -->
  <defs>
    <radialGradient id="rot" cx="0.4" cy="0.35" r="0.8">
      <stop offset="0" stop-color="#b8d488"/>
      <stop offset="0.7" stop-color="#7a9a4e"/>
      <stop offset="1" stop-color="#4a6030"/>
    </radialGradient>
  </defs>
  <!-- hulking body -->
  <path d="M25 4 C37 4 44 13 44 24 C44 35 38 43 25 44 C12 43 6 35 6 24 C6 13 13 4 25 4 Z" fill="url(#rot)" stroke="#2c3a1a" stroke-width="1.8"/>
  <!-- boils -->
  <circle cx="15" cy="16" r="3.4" fill="#cfe89a" stroke="#5d7838" stroke-width="1"/>
  <circle cx="36" cy="20" r="2.8" fill="#cfe89a" stroke="#5d7838" stroke-width="1"/>
  <circle cx="33" cy="34" r="3.8" fill="#cfe89a" stroke="#5d7838" stroke-width="1"/>
  <circle cx="14" cy="32" r="2.4" fill="#cfe89a" stroke="#5d7838" stroke-width="1"/>
  <!-- stitched gut seam -->
  <path d="M25 10 C27 18 27 30 25 42" stroke="#3c4f22" stroke-width="2" fill="none"/>
  <path d="M22 15 L28 15 M22 21 L28 21 M22 27 L28 27 M22 33 L28 33" stroke="#3c4f22" stroke-width="1.4"/>
  <!-- tiny furious head -->
  <ellipse cx="25" cy="9" rx="6" ry="4.8" fill="#94b164" stroke="#2c3a1a" stroke-width="1.4"/>
  <circle cx="22.6" cy="8.4" r="1.3" fill="#2c1414"/>
  <circle cx="27.4" cy="8.4" r="1.3" fill="#2c1414"/>
  <circle cx="22.6" cy="8.4" r="0.6" fill="#ff8c4a"/>
  <circle cx="27.4" cy="8.4" r="0.6" fill="#ff8c4a"/>
  <!-- dragging fists -->
  <ellipse cx="6.5" cy="38" rx="4.6" ry="3.8" fill="#7a9a4e" stroke="#2c3a1a" stroke-width="1.4"/>
  <ellipse cx="43.5" cy="38" rx="4.6" ry="3.8" fill="#7a9a4e" stroke="#2c3a1a" stroke-width="1.4"/>
</svg>
