<svg width="64" height="64" viewBox="0 0 64 64" xmlns="http://www.w3.org/2000/svg">
  <rect x="2" y="2" width="60" height="60" rx="10" fill="#141022" stroke="#43395f" stroke-width="2"/>
  <path d="M12 18 C20 14 28 14 32 18 C36 14 44 14 52 18 L52 46 C44 42 36 42 32 46 C28 42 20 42 12 46 Z" fill="#3a2d63" stroke="#b8a4ff" stroke-width="1.8"/>
  <path d="M32 18 L32 46" stroke="#b8a4ff" stroke-width="1.4"/>
  <path d="M16 22 C21 20 26 20 29 22 M16 27 C21 25 26 25 29 27 M16 32 C21 30 26 30 29 32" stroke="#cabcff" stroke-width="1.2" fill="none"/>
  <path d="M35 22 C40 20 45 20 48 22 M35 27 C40 25 45 25 48 27" stroke="#cabcff" stroke-width="1.2" fill="none"/>
  <circle cx="41.5" cy="34" r="4" fill="none" stroke="#e8e0ff" stroke-width="1.3"/>
  <path d="M41.5 30 L41.5 38 M37.5 34 L45.5 34" stroke="#e8e0ff" stroke-width="1"/>
  <g fill="#b8a4ff">
    <circle cx="20" cy="10" r="1.6"/>
    <circle cx="44" cy="9" r="1.2"/>
    <circle cx="54" cy="52" r="1.6"/>
    <circle cx="10" cy="52" r="1.2"/>
  </g>
</svg>
