<svg width="64" height="64" viewBox="0 0 64 64" xmlns="http://www.w3.org/2000/svg">
  <rect x="2" y="2" width="60" height="60" rx="10" fill="#141022" stroke="#43395f" stroke-width="2"/>
  <circle cx="32" cy="32" r="19" fill="none" stroke="#ff8c6b" stroke-width="2.6"/>
  <g stroke="#ff8c6b" stroke-width="2.4" stroke-linecap="round">
    <path d="M32 13 L32 5 M32 51 L32 59 M13 32 L5 32 M51 32 L59 32"/>
    <path d="M18.6 18.6 L13 13 M45.4 18.6 L51 13 M18.6 45.4 L13 51 M45.4 45.4 L51 51"/>
  </g>
  <g stroke="#b85a42" stroke-width="1.8" stroke-linecap="round">
    <path d="M32 21 L32 26 M32 38 L32 43 M21 32 L26 32 M38 32 L43 32"/>
  </g>
  <circle cx="32" cy="32" r="5.4" fill="#2a1812" stroke="#ff8c6b" stroke-width="1.4"/>
</svg>
