<svg width="64" height="64" viewBox="0 0 64 64" xmlns="http://www.w3.org/2000/svg">
  <rect x="2" y="2" width="60" height="60" rx="10" fill="#141022" stroke="#43395f" stroke-width="2"/>
  <path d="M32 8 C45 8 56 19 56 32 C56 45 45 56 32 56 C40 50 45 42 45 32 C45 22 40 14 32 8 Z" fill="#e6f0ff" stroke="#9eb4d8" stroke-width="1.6"/>
  <path d="M36 16 C41 20 44 25 44 32 C44 39 41 44 36 48" fill="none" stroke="#b8cce8" stroke-width="1.2"/>
  <path d="M14 28 C18 24 24 22 28 23 M12 36 C16 40 22 42 26 41" fill="none" stroke="#e6f0ff" stroke-width="2" stroke-linecap="round" stroke-opacity="0.7"/>
  <circle cx="20" cy="14" r="1.6" fill="#e6f0ff" fill-opacity="0.8"/>
  <circle cx="14" cy="48" r="1.3" fill="#e6f0ff" fill-opacity="0.6"/>
</svg>
