<svg width="64" height="64" viewBox="0 0 64 64" xmlns="http://www.w3.org/2000/svg">
  <rect x="2" y="2" width="60" height="60" rx="10" fill="#141022" stroke="#43395f" stroke-width="2"/>
  <path d="M30 22 L36 28 L18 50 L14 46 Z" fill="#6a5638" stroke="#3a2e1c" stroke-width="1.4"/>
  <path d="M28 8 L48 8 L52 26 L36 30 L28 26 Z" fill="#ffd28f" stroke="#a8854a" stroke-width="1.8"/>
  <path d="M32 12 L46 12 M33 17 L47 17" stroke="#a8854a" stroke-width="1.3"/>
  <circle cx="40" cy="22" r="2.6" fill="none" stroke="#fff2d8" stroke-width="1.3"/>
  <path d="M40 19.4 L40 24.6 M37.4 22 L42.6 22" stroke="#fff2d8" stroke-width="1"/>
  <g stroke="#ffd28f" stroke-width="1.8" stroke-linecap="round" stroke-opacity="0.85">
    <path d="M12 28 L18 30 M10 36 L16 36 M52 38 L58 40 M50 46 L56 48"/>
  </g>
  <path d="M10 56 L54 56" stroke="#ffd28f" stroke-width="2" stroke-dasharray="5 4" stroke-opacity="0.6"/>
</svg>
