<svg width="64" height="64" viewBox="0 0 64 64" xmlns="http://www.w3.org/2000/svg">
  <rect x="2" y="2" width="60" height="60" rx="10" fill="#141022" stroke="#43395f" stroke-width="2"/>
  <path d="M24 6 C28 12 30 16 28 22" fill="none" stroke="#8a93a8" stroke-width="1.8" stroke-dasharray="3 2.4"/>
  <path d="M28 22 L40 22 L42 30 C42 36 38 40 34 40 C30 40 26 36 26 30 Z" fill="#3a4256" stroke="#9fd0ff" stroke-width="1.6"/>
  <circle cx="34" cy="30" r="3.4" fill="#9fd0ff"/>
  <path d="M30 22 L30 18 L38 18 L38 22" fill="none" stroke="#8a93a8" stroke-width="1.6"/>
  <path d="M46 12 L38 28 L44 28 L34 48" fill="none" stroke="#cfe8ff" stroke-width="2.8" stroke-linejoin="round" stroke-linecap="round"/>
  <path d="M18 34 L14 42 L17 42 L12 52" fill="none" stroke="#9fd0ff" stroke-width="2" stroke-linejoin="round" stroke-linecap="round" stroke-opacity="0.8"/>
  <circle cx="34" cy="49" r="2" fill="#cfe8ff"/>
</svg>
