<svg width="36" height="36" viewBox="0 0 36 36" xmlns="http://www.w3.org/2000/svg">
  <!-- Moon chakram projectile. Original art. -->
  <defs>
    <linearGradient id="cres" x1="0" y1="0" x2="1" y2="1">
      <stop offset="0" stop-color="#ffffff"/>
      <stop offset="0.5" stop-color="#e6f0ff"/>
      <stop offset="1" stop-color="#9eb4d8"/>
    </linearGradient>
  </defs>
  <!-- outer ring blade -->
  <path d="M18 2 C26.8 2 34 9.2 34 18 C34 26.8 26.8 34 18 34 C9.2 34 2 26.8 2 18 C2 9.2 9.2 2 18 2 Z M18 7 C11.9 7 7 11.9 7 18 C7 24.1 11.9 29 18 29 C24.1 29 29 24.1 29 18 C29 11.9 24.1 7 18 7 Z" fill="url(#cres)" fill-rule="evenodd"/>
  <!-- four cutting teeth -->
  <path d="M18 0 L21 5 L15 5 Z" fill="#eaf2ff"/>
  <path d="M36 18 L31 21 L31 15 Z" fill="#eaf2ff"/>
  <path d="M18 36 L15 31 L21 31 Z" fill="#c8d8f0"/>
  <path d="M0 18 L5 15 L5 21 Z" fill="#c8d8f0"/>
  <!-- inner moon glint -->
  <circle cx="14" cy="13" r="2" fill="#ffffff" fill-opacity="0.9"/>
  <path d="M24 24 C22 26 19 27 16.5 26.4" stroke="#9eb4d8" stroke-width="1.2" fill="none" stroke-opacity="0.8"/>
</svg>
