<svg width="48" height="48" viewBox="0 0 48 48" xmlns="http://www.w3.org/2000/svg">
  <rect x="2" y="2" width="44" height="44" rx="8" fill="#141022" stroke="#43395f" stroke-width="2"/>
  <path d="M14 10 L14 26 C14 32 18 36 24 36 C30 36 34 32 34 26 L34 10 L27 10 L27 25 C27 27.4 26 28.6 24 28.6 C22 28.6 21 27.4 21 25 L21 10 Z" fill="#7fa8e8" stroke="#34507c" stroke-width="1.6"/>
  <rect x="14" y="10" width="7" height="6" fill="#dce8fa"/>
  <rect x="27" y="10" width="7" height="6" fill="#dce8fa"/>
  <path d="M10 40 L14 38 M24 42 L24 38 M38 40 L34 38" stroke="#7fa8e8" stroke-width="1.8" stroke-linecap="round"/>
</svg>
