<svg width="48" height="48" viewBox="0 0 48 48" xmlns="http://www.w3.org/2000/svg">
  <rect x="2" y="2" width="44" height="44" rx="8" fill="#1c0f1a" stroke="#6e2a4a" stroke-width="2"/>
  <ellipse cx="24" cy="21" rx="12" ry="11.4" fill="#e8dccc" stroke="#7a6a54" stroke-width="1.5"/>
  <rect x="18" y="29" width="12" height="8" rx="2.4" fill="#e8dccc" stroke="#7a6a54" stroke-width="1.3"/>
  <circle cx="19.4" cy="20" r="3.4" fill="#2a0a18"/>
  <circle cx="28.6" cy="20" r="3.4" fill="#2a0a18"/>
  <circle cx="19.4" cy="20" r="1.3" fill="#ff6b81"/>
  <circle cx="28.6" cy="20" r="1.3" fill="#ff6b81"/>
  <path d="M24 24 L22.4 27.4 L25.6 27.4 Z" fill="#2a0a18"/>
  <path d="M21 30.6 L21 34 M24 30.6 L24 34.6 M27 30.6 L27 34" stroke="#7a6a54" stroke-width="1.3"/>
  <path d="M10 38 L14 42 M14 38 L10 42 M34 38 L38 42 M38 38 L34 42" stroke="#ff6b81" stroke-width="1.6" stroke-linecap="round"/>
</svg>
